

<svg xmlns="http://www.w3.org/2000/svg" width="512" height="512" fill="none" viewBox="0 0 512 512" id="g"><path fill="#FF306D" fill-rule="evenodd" d="M255.986 455.276V492C376.192 492 455.304 376.2 455.304 256H492C492 135.8 376.192 56.724 255.986 56.724V20C135.777 20 56.698 135.8 56.698 256H20C20 376.2 135.777 455.276 255.986 455.276ZM273.752 219.552C277.848 221.429 281.005 224.16 283.224 227.744H343.128C340.397 208.117 331.523 192.587 316.504 181.152C301.656 169.717 282.371 164 258.648 164C240.045 164 223.832 167.925 210.008 175.776C196.184 183.456 185.517 194.293 178.008 208.288C170.669 222.283 167 238.24 167 256.16C167 274.08 170.669 290.037 178.008 304.032C185.517 318.027 196.184 328.949 210.008 336.8C224.003 344.48 240.387 348.32 259.16 348.32C280.323 348.32 297.816 343.541 311.64 333.984C325.464 324.256 336.301 312.651 344.152 299.168V242.336H251.736V282.528H297.048C289.027 293.109 278.445 298.4 265.304 298.4C251.48 298.4 241.24 294.901 234.584 287.904C227.928 280.907 224.6 270.325 224.6 256.16C224.6 243.872 227.587 234.229 233.56 227.232C239.533 220.064 247.981 216.48 258.904 216.48C264.707 216.48 269.656 217.504 273.752 219.552Z" clip-rule="evenodd"></path></svg>